<?xml version="1.0" standalone="no"?>
<!DOCTYPE svg PUBLIC "-//W3C//DTD SVG 20010904//EN"
 "http://www.w3.org/TR/2001/REC-SVG-20010904/DTD/svg10.dtd">
<svg version="1.0" xmlns="http://www.w3.org/2000/svg"
 width="654.000000pt" height="230.000000pt" viewBox="0 0 654.000000 230.000000"
 preserveAspectRatio="xMidYMid meet">

<g transform="translate(0.000000,230.000000) scale(0.100000,-0.100000)"
fill="#000000" stroke="none">
<path d="M1382 1698 c-7 -7 -12 -41 -12 -83 0 -42 5 -76 12 -83 7 -7 41 -12
83 -12 42 0 76 5 83 12 7 7 12 41 12 83 0 42 -5 76 -12 83 -7 7 -41 12 -83 12
-42 0 -76 -5 -83 -12z"/>
<path d="M1612 1701 c-9 -5 -12 -31 -10 -92 l3 -84 85 0 85 0 3 84 c2 61 -1
87 -10 92 -7 5 -42 9 -78 9 -36 0 -71 -4 -78 -9z"/>
<path d="M2611 1684 c-295 -63 -475 -326 -458 -668 16 -339 224 -568 538 -592
285 -22 507 127 574 383 8 31 15 70 15 85 l0 28 -125 0 -125 0 -6 -27 c-22
-105 -75 -185 -149 -222 -41 -22 -63 -26 -130 -26 -67 0 -89 4 -137 28 -107
53 -167 150 -191 308 -20 143 22 310 102 402 52 58 124 87 220 87 96 0 154
-23 212 -82 33 -34 45 -55 63 -110 5 -16 20 -18 131 -18 143 0 139 -3 110 93
-76 250 -355 394 -644 331z"/>
<path d="M5881 1684 c-139 -30 -247 -107 -298 -212 -23 -48 -27 -68 -27 -141
1 -99 15 -139 70 -200 67 -75 143 -110 362 -166 229 -59 292 -101 292 -195 0
-36 -6 -48 -38 -80 -49 -50 -101 -63 -222 -58 -78 3 -103 8 -140 28 -54 31
-100 93 -107 148 l-6 42 -130 0 -130 0 7 -55 c20 -173 138 -301 322 -349 131
-34 300 -30 431 9 73 22 171 91 210 148 43 64 57 115 57 212 1 68 -4 89 -27
137 -57 117 -132 161 -387 228 -107 28 -214 60 -237 70 -56 25 -77 58 -70 116
9 81 73 124 188 124 132 0 206 -43 231 -133 l12 -47 129 0 129 0 -7 53 c-15
118 -96 227 -209 281 -107 51 -279 68 -405 40z"/>
<path d="M3310 1560 l0 -110 183 -2 182 -3 3 -497 2 -498 130 0 130 0 0 500 0
500 185 0 185 0 0 110 0 110 -500 0 -500 0 0 -110z"/>
<path d="M4382 1218 c4 -431 5 -456 25 -509 53 -142 137 -216 298 -265 92 -28
306 -26 400 3 169 53 265 156 301 322 10 51 14 163 14 484 l0 418 -132 -3
-133 -3 -5 -440 -5 -440 -25 -45 c-63 -113 -295 -135 -404 -39 -65 57 -66 66
-69 539 l-2 425 -133 3 -133 3 3 -453z"/>
<path d="M1820 1569 c0 -15 7 -33 16 -40 15 -12 16 -11 9 11 -14 46 -24 58
-25 29z"/>
<path d="M1317 1556 c-5 -15 -6 -31 -3 -34 8 -8 18 25 14 45 -3 13 -6 10 -11
-11z"/>
<path d="M1285 1468 c-2 -7 -16 -44 -30 -82 -14 -37 -25 -73 -25 -78 0 -5 21
-8 48 -6 l47 3 0 85 c0 73 -2 85 -18 88 -9 2 -19 -2 -22 -10z"/>
<path d="M1376 1458 c-10 -40 -6 -124 7 -142 10 -14 25 -16 87 -14 l75 3 3 88
3 87 -84 0 c-79 0 -85 -1 -91 -22z"/>
<path d="M1604 1467 c-3 -8 -4 -47 -2 -88 l3 -74 85 0 85 0 0 85 0 85 -83 3
c-63 2 -84 0 -88 -11z"/>
<path d="M1824 1467 c-3 -8 -4 -47 -2 -88 l3 -74 52 -3 52 -3 -30 90 c-25 73
-35 91 -50 91 -11 0 -22 -6 -25 -13z"/>
<path d="M1186 1183 c-14 -43 -26 -84 -26 -91 0 -10 20 -12 83 -10 l82 3 0 85
0 85 -57 3 -56 3 -26 -78z"/>
<path d="M1375 1237 c-3 -12 -5 -52 -3 -87 l3 -65 67 -3 67 -3 24 78 c13 43
22 84 19 91 -3 8 -30 12 -88 12 -79 0 -84 -1 -89 -23z"/>
<path d="M1605 1250 c-4 -6 3 -47 16 -91 l23 -80 65 3 66 3 0 85 0 85 -82 3
c-52 2 -84 -1 -88 -8z"/>
<path d="M1825 1237 c-3 -12 -5 -52 -3 -87 l3 -65 88 -3 c48 -1 87 1 87 5 0 4
-12 45 -27 90 l-28 83 -57 0 c-52 0 -58 -2 -63 -23z"/>
<path d="M1163 1033 c-16 -6 -18 -173 -3 -174 6 0 42 0 80 0 39 0 75 0 80 0 6
1 10 36 10 85 0 67 -3 85 -16 90 -18 7 -133 7 -151 -1z"/>
<path d="M1382 1028 c-7 -7 -12 -41 -12 -83 0 -78 9 -95 50 -95 25 0 28 6 49
80 12 45 24 87 28 95 4 12 -6 15 -49 15 -30 0 -59 -5 -66 -12z"/>
<path d="M1660 1033 c0 -5 7 -30 15 -58 9 -27 20 -67 26 -87 7 -27 15 -38 29
-38 46 0 50 8 50 95 0 66 -3 84 -16 89 -22 9 -104 7 -104 -1z"/>
<path d="M1832 1028 c-14 -14 -17 -149 -3 -164 6 -5 46 -8 91 -6 l81 4 -3 86
-3 87 -75 3 c-50 2 -79 -1 -88 -10z"/>
<path d="M1093 911 c-7 -19 -13 -41 -13 -50 0 -14 1 -14 16 0 10 10 14 29 12
50 l-3 34 -12 -34z"/>
<path d="M2051 904 c-1 -28 4 -44 14 -48 8 -3 15 -4 15 -3 0 1 -7 22 -14 47
l-15 45 0 -41z"/>
<path d="M1055 798 c-11 -29 -55 -162 -55 -165 0 -9 88 -1 98 9 12 12 17 124
6 152 -7 19 -43 21 -49 4z"/>
<path d="M1152 723 l3 -88 85 0 85 0 0 85 0 85 -88 3 -88 3 3 -88z"/>
<path d="M1376 794 c-11 -28 -6 -140 6 -152 14 -14 150 -16 164 -3 5 6 8 46 6
90 l-4 81 -83 0 c-66 0 -84 -3 -89 -16z"/>
<path d="M1604 797 c-3 -8 -4 -47 -2 -88 l3 -74 85 0 85 0 3 88 3 87 -86 0
c-62 0 -87 -4 -91 -13z"/>
<path d="M1827 804 c-9 -9 -9 -136 -1 -158 8 -22 156 -23 173 -2 7 9 11 42 9
88 l-3 73 -85 3 c-47 1 -89 0 -93 -4z"/>
<path d="M2052 723 l3 -88 52 -3 52 -3 -30 90 c-28 82 -33 91 -55 91 -25 0
-25 -1 -22 -87z"/>
<path d="M956 516 c-39 -111 -41 -107 62 -104 l87 3 3 65 c5 105 2 110 -67
110 l-58 0 -27 -74z"/>
<path d="M1157 584 c-4 -4 -7 -45 -7 -91 l0 -83 84 0 85 0 6 43 c4 23 5 62 3
87 l-3 45 -80 3 c-45 1 -84 0 -88 -4z"/>
<path d="M1826 574 c-9 -24 -7 -110 4 -138 9 -25 13 -26 90 -26 l80 0 0 90 0
90 -84 0 c-67 0 -85 -3 -90 -16z"/>
<path d="M2052 503 l3 -88 79 -3 c44 -2 83 1 87 5 5 5 -3 46 -18 91 l-27 82
-64 0 -63 0 3 -87z"/>
<path d="M947 199 c-26 -69 -31 -110 -6 -55 17 37 71 37 88 0 6 -15 14 -24 16
-22 7 7 -49 141 -61 145 -5 2 -22 -29 -37 -68z m63 -15 c0 -2 -11 -4 -25 -4
-29 0 -28 -2 -14 40 l12 32 13 -32 c8 -18 14 -34 14 -36z"/>
<path d="M1070 195 l0 -75 45 0 c25 0 45 5 45 10 0 6 -16 10 -35 10 l-35 0 0
65 c0 37 -4 65 -10 65 -6 0 -10 -32 -10 -75z"/>
<path d="M1207 252 c-26 -28 -22 -97 5 -116 43 -31 108 -13 108 28 0 19 -6 25
-30 28 -16 3 -30 1 -30 -4 0 -4 9 -8 20 -8 26 0 26 -26 1 -40 -60 -31 -114 66
-59 104 29 20 47 20 70 -1 10 -9 18 -12 18 -7 0 35 -76 46 -103 16z"/>
<path d="M1367 252 c-40 -44 -8 -132 48 -132 57 0 90 94 47 133 -25 22 -75 21
-95 -1z m83 -12 c11 -11 20 -31 20 -45 0 -28 -32 -65 -55 -65 -23 0 -55 37
-55 65 0 28 32 65 55 65 8 0 24 -9 35 -20z"/>
<path d="M1510 201 c0 -39 5 -73 10 -76 6 -4 10 8 10 29 0 29 4 36 20 36 19 0
33 -11 64 -55 8 -11 17 -17 21 -14 3 4 -6 20 -20 37 -26 30 -26 31 -5 42 22
12 26 40 8 58 -7 7 -34 12 -60 12 l-48 0 0 -69z m100 29 c0 -13 -9 -22 -25
-26 -34 -8 -55 1 -55 26 0 17 6 20 40 20 33 0 40 -3 40 -20z"/>
<path d="M1673 195 c0 -44 2 -61 4 -37 2 23 2 59 0 80 -2 20 -4 1 -4 -43z"/>
<path d="M1730 261 c23 -6 25 -12 28 -74 4 -87 22 -78 22 10 0 60 2 65 20 60
11 -3 20 -1 20 4 0 5 -26 9 -57 8 -41 -1 -50 -3 -33 -8z"/>
<path d="M1850 194 c0 -47 4 -73 10 -69 6 3 10 19 10 36 0 27 2 29 39 29 39 0
40 -1 44 -37 2 -21 4 -2 4 42 0 44 -2 65 -4 48 -4 -31 -7 -33 -44 -33 -37 0
-39 2 -39 30 0 17 -4 30 -10 30 -6 0 -10 -32 -10 -76z"/>
<path d="M2002 193 c2 -70 2 -72 5 -20 2 31 7 57 12 57 4 0 15 -25 25 -55 9
-30 20 -55 25 -55 4 0 16 26 27 58 l19 57 3 -57 c4 -85 22 -71 22 17 0 92 -18
101 -44 20 -9 -30 -20 -57 -25 -59 -4 -3 -16 22 -26 54 -27 88 -45 80 -43 -17z"/>
<path d="M2183 195 c0 -44 2 -61 4 -37 2 23 2 59 0 80 -2 20 -4 1 -4 -43z"/>
<path d="M2247 252 c-24 -26 -22 -87 3 -112 25 -25 62 -26 83 -2 26 29 20 38
-8 12 -21 -20 -28 -22 -50 -12 -31 14 -43 57 -24 91 18 32 45 38 70 15 24 -21
36 -13 14 10 -22 21 -68 20 -88 -2z"/>
<path d="M2457 252 c-23 -26 -22 -94 1 -115 25 -23 65 -21 87 3 25 27 12 37
-14 11 -26 -26 -36 -26 -61 -1 -24 24 -26 57 -4 88 18 26 41 28 66 5 23 -21
35 -11 13 11 -22 21 -68 20 -88 -2z"/>
<path d="M2607 252 c-26 -28 -22 -97 5 -116 51 -36 108 -4 108 59 0 64 -74
101 -113 57z m83 -12 c11 -11 20 -31 20 -45 0 -28 -32 -65 -55 -65 -23 0 -55
37 -55 65 0 28 32 65 55 65 8 0 24 -9 35 -20z"/>
<path d="M2750 195 c0 -87 18 -102 22 -18 l3 57 38 -58 c21 -31 41 -55 45 -52
10 6 15 124 5 138 -5 8 -10 -11 -13 -46 l-5 -60 -38 57 c-20 31 -42 57 -47 57
-6 0 -10 -32 -10 -75z"/>
<path d="M2910 261 c23 -6 25 -12 28 -74 4 -87 22 -78 22 10 0 60 2 65 20 60
11 -3 23 -1 26 4 3 5 -22 9 -58 8 -42 -1 -55 -3 -38 -8z"/>
<path d="M3030 194 c0 -47 4 -73 10 -69 6 3 10 19 10 36 0 41 32 38 66 -6 15
-20 29 -33 32 -30 3 3 -4 19 -17 35 -19 26 -20 31 -6 36 20 8 20 60 -1 68 -9
3 -33 6 -55 6 l-39 0 0 -76z m96 44 c9 -14 -23 -38 -53 -38 -18 0 -23 6 -23
25 0 22 4 25 34 25 19 0 38 -5 42 -12z"/>
<path d="M3195 199 c-15 -38 -25 -73 -21 -76 3 -3 10 6 15 21 14 36 66 37 83
1 22 -48 28 -25 7 28 -12 28 -25 62 -30 75 -14 36 -26 26 -54 -49z m54 11 c9
-28 8 -30 -15 -30 -24 0 -30 13 -18 44 9 24 21 19 33 -14z"/>
<path d="M3336 251 c-10 -11 -18 -36 -18 -56 0 -67 66 -100 107 -55 25 27 12
37 -14 11 -26 -26 -36 -26 -61 -1 -25 25 -26 72 -2 93 23 21 41 21 64 0 23
-21 35 -11 13 11 -22 22 -68 20 -89 -3z"/>
<path d="M3480 261 c23 -6 25 -13 30 -76 l6 -70 4 70 c5 65 7 70 28 69 12 0
22 3 22 8 0 4 -26 8 -57 7 -40 -1 -50 -3 -33 -8z"/>
<path d="M3640 262 c0 -5 10 -8 23 -8 20 1 22 -4 27 -69 l6 -70 4 70 c5 65 7
70 28 69 12 0 22 3 22 8 0 4 -25 8 -55 8 -30 0 -55 -4 -55 -8z"/>
<path d="M3789 227 c16 -24 31 -59 34 -78 l4 -34 1 34 c1 19 12 48 25 65 34
45 39 56 28 56 -5 0 -19 -16 -31 -36 l-22 -35 -25 35 c-13 20 -28 36 -34 36
-5 0 3 -19 20 -43z"/>
<path d="M3910 201 c0 -39 5 -73 10 -76 6 -4 10 7 10 24 0 28 3 31 30 31 37 0
72 32 63 57 -10 26 -23 33 -70 33 l-43 0 0 -69z m85 45 c28 -21 12 -46 -30
-46 -30 0 -35 3 -35 23 0 13 3 27 7 30 11 11 38 8 58 -7z"/>
<path d="M4052 198 l3 -73 53 -3 c31 -2 52 1 52 7 0 6 -20 11 -45 11 -41 0
-45 2 -45 25 0 23 4 25 40 25 22 0 40 5 40 10 0 6 -18 10 -41 10 -36 0 -40 2
-37 23 2 18 11 23 48 28 l45 6 -58 1 -58 2 3 -72z"/>
<path d="M4200 255 c-20 -24 -3 -51 40 -64 48 -14 55 -24 34 -46 -18 -18 -52
-12 -71 14 -11 14 -12 14 -13 -2 0 -39 93 -48 107 -10 9 23 -9 47 -48 59 -22
8 -34 18 -34 30 0 25 32 30 56 8 16 -15 19 -15 19 -2 0 29 -68 39 -90 13z"/>
<path d="M4390 211 c0 -67 15 -91 59 -91 42 0 51 17 49 89 -1 51 -2 55 -5 21
-7 -89 -22 -112 -64 -90 -15 9 -19 22 -19 70 0 33 -4 60 -10 60 -6 0 -10 -26
-10 -59z"/>
<path d="M4540 193 c0 -85 17 -92 22 -9 l3 50 38 -57 c20 -31 39 -57 42 -57 3
0 4 35 3 78 l-1 77 -6 -60 -6 -60 -39 58 c-21 31 -43 57 -47 57 -5 0 -9 -35
-9 -77z"/>
<path d="M4690 201 c0 -39 5 -73 10 -76 6 -4 10 22 10 69 0 44 -4 76 -10 76
-6 0 -10 -30 -10 -69z"/>
<path d="M4750 194 c0 -47 4 -73 10 -69 6 3 10 19 10 36 0 27 3 29 36 29 23 0
33 4 28 11 -3 6 -20 9 -36 7 -26 -4 -29 -2 -26 21 3 22 9 27 43 32 39 6 39 6
-12 8 l-53 1 0 -76z"/>
<path d="M4880 194 c0 -47 4 -73 10 -69 13 8 13 145 0 145 -6 0 -10 -32 -10
-76z"/>
<path d="M4940 195 l0 -75 50 0 c28 0 50 5 50 10 0 6 -20 10 -45 10 -41 0 -45
2 -45 25 0 23 4 25 40 25 22 0 40 5 40 10 0 6 -18 10 -41 10 -36 0 -40 2 -37
23 2 18 11 23 48 28 l45 6 -52 1 -53 2 0 -75z"/>
<path d="M5072 198 l3 -73 37 -3 c49 -4 78 24 78 76 0 50 -24 72 -79 72 l-42
0 3 -72z m99 28 c8 -16 8 -34 2 -53 -8 -23 -16 -29 -46 -31 l-37 -3 0 55 0 56
35 0 c28 0 38 -5 46 -24z"/>
<path d="M5290 255 c-20 -24 -3 -51 40 -64 42 -12 55 -43 24 -55 -25 -9 -33
-7 -54 14 -16 16 -20 17 -20 5 0 -37 93 -44 107 -8 9 23 -9 47 -48 59 -22 8
-34 18 -34 30 0 25 32 30 56 8 16 -15 19 -15 19 -2 0 29 -68 39 -90 13z"/>
<path d="M5430 261 c23 -6 25 -13 31 -76 6 -79 10 -77 12 10 2 55 4 60 25 59
12 0 22 3 22 8 0 4 -26 8 -57 7 -40 -1 -50 -3 -33 -8z"/>
<path d="M5546 199 c-26 -69 -29 -109 -5 -55 17 36 65 37 81 1 9 -21 28 -35
28 -22 0 16 -58 141 -67 144 -6 2 -22 -28 -37 -68z m64 -15 c0 -2 -11 -4 -25
-4 -28 0 -30 8 -13 45 l12 26 13 -32 c7 -17 13 -33 13 -35z"/>
<path d="M5670 195 c0 -87 18 -102 22 -18 l3 57 38 -58 c21 -31 42 -54 47 -51
13 8 13 145 0 145 -5 0 -10 -26 -12 -57 l-3 -57 -38 57 c-20 31 -42 57 -47 57
-6 0 -10 -32 -10 -75z"/>
<path d="M5820 195 l0 -75 40 0 c53 0 80 27 80 79 0 48 -26 71 -82 71 l-38 0
0 -75z m102 24 c5 -16 5 -37 -1 -52 -9 -22 -17 -27 -46 -27 l-35 0 0 56 0 55
37 -3 c29 -2 38 -8 45 -29z"/>
<path d="M5987 199 c-26 -70 -30 -108 -6 -55 10 20 19 26 45 26 27 0 35 -5 40
-25 3 -14 10 -25 15 -25 12 0 13 -2 -19 75 -15 38 -33 70 -38 72 -6 2 -23 -29
-37 -68z m63 -15 c0 -2 -11 -4 -25 -4 -28 0 -30 8 -13 45 l12 26 13 -32 c7
-17 13 -33 13 -35z"/>
<path d="M6110 195 c0 -43 4 -75 10 -75 6 0 10 16 10 35 0 48 29 47 68 -2 17
-21 33 -35 37 -32 3 4 -6 21 -20 38 -22 25 -24 32 -12 37 22 8 29 32 17 55 -8
15 -22 19 -60 19 l-50 0 0 -75z m84 59 c9 -3 16 -14 16 -24 0 -20 -19 -30 -56
-30 -20 0 -24 5 -24 30 0 25 4 30 24 30 13 0 31 -3 40 -6z"/>
<path d="M6262 198 l3 -73 37 -3 c50 -4 78 24 78 77 0 48 -26 71 -83 71 l-38
0 3 -72z m99 28 c8 -16 8 -34 2 -53 -8 -23 -16 -29 -46 -31 l-37 -3 0 55 0 56
35 0 c28 0 38 -5 46 -24z"/>
<path d="M6420 255 c-17 -20 -6 -43 27 -56 66 -26 77 -41 42 -59 -18 -10 -26
-8 -50 9 -23 17 -29 18 -29 7 0 -37 83 -47 104 -13 15 24 -2 49 -45 63 -38 13
-50 39 -21 48 22 7 52 -2 52 -15 0 -5 5 -9 10 -9 7 0 7 6 0 20 -13 24 -71 28
-90 5z"/>
</g>
</svg>
